<?xml version="1.0" encoding="UTF-8"?>
<svg version="1.1" xmlns="http://www.w3.org/2000/svg" width="1000" height="1080">
<path d="M0 0 C0.67619957 -0.00297112 1.35239914 -0.00594224 2.04908961 -0.0090034 C4.31982282 -0.01768994 6.59050331 -0.01919861 8.86125183 -0.02069092 C10.48740756 -0.02531913 12.1135622 -0.03034379 13.73971558 -0.03573608 C18.16128697 -0.04886185 22.58284318 -0.05530539 27.00443101 -0.05974674 C29.76656375 -0.06267719 32.52869233 -0.06678195 35.29082298 -0.07125092 C43.93204473 -0.08492633 52.57325699 -0.09459276 61.2144888 -0.09845281 C71.19109782 -0.10293378 81.16756984 -0.12048331 91.1441372 -0.1494534 C98.85463391 -0.17106641 106.56509206 -0.18115688 114.27561873 -0.18249393 C118.88126654 -0.18354223 123.48678558 -0.18945543 128.0924015 -0.20731354 C132.42540407 -0.22378763 136.75818098 -0.22595298 141.09120369 -0.21717453 C142.68028619 -0.2164038 144.2693808 -0.22075166 145.85843277 -0.23063278 C148.0306461 -0.24334645 150.20205951 -0.23747935 152.37426758 -0.22705078 C153.58898145 -0.22851734 154.80369532 -0.2299839 156.0552187 -0.2314949 C161.29156984 0.354707 165.2517398 2.41859241 168.62760925 6.45294189 C169.1071405 7.00594971 169.58667175 7.55895752 170.08073425 8.12872314 C172.96712276 12.6061029 173.62176379 16.8700992 173.31559753 22.10723877 C173.25800262 23.26284302 173.20040771 24.41844727 173.1410675 25.60906982 C173.04546036 27.46538025 173.04546036 27.46538025 172.94792175 29.35919189 C172.85071875 32.69834558 172.76628909 36.03729306 172.68953133 39.3769455 C172.60251475 42.85026406 172.47310887 46.31170431 172.24967957 49.77911377 C170.83153501 65.17438851 170.83153501 65.17438851 176.60014343 78.70050049 C182.32528316 83.24005339 188.72012672 86.16302604 195.45079041 88.91412354 C199.20242524 90.48603451 202.52359614 92.41141279 206.00260925 94.51544189 C208.1270966 95.72467634 210.25208507 96.93303087 212.37760925 98.14044189 C222.4492045 103.8739549 232.48192258 109.6711422 242.47721863 115.53692627 C244.26615026 116.58543546 246.05752316 117.62979463 247.85173035 118.66925049 C249.5463239 119.65626197 251.23157382 120.65947962 252.90739441 121.67803955 C253.69807312 122.14645264 254.48875183 122.61486572 255.3033905 123.09747314 C256.340401 123.72552856 256.340401 123.72552856 257.39836121 124.36627197 C259.92310351 125.3538084 260.86477575 125.11351419 263.37760925 124.14044189 C265.15574009 123.25111383 266.90744611 122.30818763 268.639328 121.33184814 C269.66791931 120.75426758 270.69651062 120.17668701 271.75627136 119.581604 C272.84818787 118.96164551 273.94010437 118.34168701 275.06510925 117.70294189 C276.1847406 117.07202637 277.30437195 116.44111084 278.45793152 115.79107666 C284.95121606 112.12087832 291.40190555 108.38601307 297.81510925 104.57794189 C315.68980143 94.02446979 315.68980143 94.02446979 323.37760925 95.14044189 C333.69746643 98.58039429 337.7466726 107.16817153 342.79093933 116.18487549 C344.19681729 118.69769383 345.61594239 121.20294254 347.03450012 123.70861816 C347.76199945 124.99370187 348.48886493 126.27914459 349.21510315 127.56494141 C352.54581443 133.45686227 355.95252623 139.30291768 359.37760925 145.14044189 C364.78205645 154.36792354 370.10413839 163.64039829 375.39811707 172.93145752 C380.56362216 181.99461603 385.79244736 191.01883893 391.06437683 200.02056885 C396.48897186 209.29782837 401.81962547 218.6278482 407.13737488 227.96661377 C407.77739441 229.09003174 408.41741394 230.21344971 409.076828 231.37091064 C409.64232361 232.36501953 410.20781921 233.35912842 410.79045105 234.38336182 C411.85065765 236.22506511 412.93591729 238.0525657 414.04533386 239.86505127 C416.490184 244.04060621 416.79042186 248.51301107 416.045578 253.25372314 C413.13500656 262.92433147 403.17610647 267.71711088 394.87760925 272.20294189 C392.00276322 273.77828856 389.1709821 275.36079593 386.37956238 277.08184814 C383.12955454 278.94543089 379.89989212 279.86947681 376.29753113 280.87091064 C369.12874457 283.28585405 362.13280208 286.17578656 358.37760925 293.14044189 C353.69475819 308.12645891 356.03442326 325.95206708 356.72966003 341.3850708 C356.97655902 347.44346678 357.0850673 353.50423189 357.20573425 359.56622314 C357.46206501 371.43059372 357.87080689 383.28431192 358.37760925 395.14044189 C362.13862017 397.28981547 365.89965885 399.43914045 369.66072083 401.58842468 C370.93420623 402.31617491 372.20768468 403.04393732 373.4811554 403.77171326 C387.51469761 411.79807622 387.51469761 411.79807622 401.56286621 419.79876709 C407.85751282 423.4088538 412.53933002 427.46388342 415.81510925 434.01544189 C417.44747663 443.08414954 414.02374758 449.49438679 409.44010925 457.14044189 C408.84891296 458.15517578 408.25771667 459.16990967 407.64860535 460.21539307 C405.90617785 463.1992825 404.14410792 466.17075848 402.37760925 469.14044189 C401.52344037 470.59410336 400.67042463 472.04844357 399.8190155 473.50372314 C398.24602653 476.18856748 396.66544565 478.86875204 395.08073425 481.54669189 C386.68204533 495.77745073 378.51044464 510.1433459 370.3238678 524.49691772 C363.86854194 535.81419464 357.3693896 547.104357 350.7721405 558.33966064 C348.43057811 562.32756006 346.12021412 566.33168669 343.826828 570.34747314 C342.67717613 572.34101331 341.52743972 574.33450473 340.37760925 576.32794189 C339.86174255 577.24301514 339.34587585 578.15808838 338.81437683 579.10089111 C335.3578073 585.05490389 332.11866802 589.07301468 326.00260925 592.45294189 C315.01283884 595.3312151 306.87139247 589.2137951 297.58854675 583.84356689 C295.64168872 582.69514125 293.69640745 581.54403897 291.75260925 580.39044189 C289.65932846 579.16568126 287.56557358 577.94173059 285.47135925 576.71856689 C281.64611508 574.47875411 277.83563779 572.21666375 274.03385925 569.93731689 C272.44066164 569.00408157 270.84694564 568.07173041 269.25260925 567.14044189 C268.53766296 566.70119385 267.82271667 566.2619458 267.08610535 565.80938721 C264.06578842 564.06916128 262.05966449 563.05188776 258.54948425 563.50762939 C253.8464215 565.92866416 249.29311494 568.55300908 244.75260925 571.26544189 C242.59447464 572.54009847 240.43558969 573.81348529 238.27604675 575.08575439 C237.1477948 575.75123291 236.01954285 576.41671143 234.85710144 577.10235596 C229.6464759 580.16352978 224.39269193 583.14913828 219.14015198 586.13760376 C205.83076547 593.71027712 192.56825308 601.36226709 179.37760925 609.14044189 C178.51724564 609.54795181 177.65688202 609.95546173 176.77044678 610.37532043 C174.14429895 611.91762802 174.14429895 611.91762802 173.75856018 614.68051147 C173.76094696 615.69483246 173.76333374 616.70915344 173.76579285 617.75421143 C173.75583282 618.90615997 173.7458728 620.05810852 173.73561096 621.2449646 C173.74895477 622.49180023 173.76229858 623.73863586 173.77604675 625.02325439 C173.76381112 626.98549529 173.75155987 628.94773623 173.73841286 630.90997124 C173.72585906 633.66406612 173.7355467 636.41790554 173.74559021 639.17199707 C173.76166246 643.96558119 173.75884466 648.75898602 173.73200989 653.55252075 C173.71996384 656.10240076 173.72251807 658.65240378 173.74171448 661.20223999 C173.71765925 668.90673916 173.48918457 676.3262528 168.44010925 682.51544189 C167.75948425 683.05169189 167.07885925 683.58794189 166.37760925 684.14044189 C165.69698425 684.69731689 165.01635925 685.25419189 164.31510925 685.82794189 C160.52898832 688.3927335 157.20383374 688.2699796 152.75521851 688.28088379 C151.74091915 688.28534047 151.74091915 688.28534047 150.7061289 688.28988719 C148.43539568 688.29857373 146.16471519 688.3000824 143.89396667 688.30157471 C142.26781095 688.30620291 140.6416563 688.31122758 139.01550293 688.31661987 C134.59393154 688.32974564 130.17237533 688.33618918 125.7507875 688.34063053 C122.98865476 688.34356098 120.22652617 688.34766573 117.46439552 688.3521347 C108.82317378 688.36581012 100.18196152 688.37547655 91.5407297 688.3793366 C81.56412069 688.38381757 71.58764866 688.4013671 61.6110813 688.43033719 C53.9005846 688.4519502 46.19012645 688.46204067 38.47959977 688.46337771 C33.87395197 688.46442602 29.26843293 688.47033922 24.662817 688.48819733 C20.32981444 688.50467141 15.99703753 688.50683676 11.66401482 688.49805832 C10.07493231 688.49728759 8.48583771 688.50163545 6.89678574 688.51151657 C4.7245724 688.52423024 2.553159 688.51836314 0.38095093 688.50793457 C-0.83376294 688.50940113 -2.04847681 688.51086769 -3.30000019 688.51237869 C-8.53635133 687.92617679 -12.49652129 685.86229138 -15.87239075 681.82794189 C-16.59168762 680.99843018 -16.59168762 680.99843018 -17.32551575 680.15216064 C-20.21190425 675.67478089 -20.86654529 671.41078459 -20.56037903 666.17364502 C-20.50278412 665.01804077 -20.44518921 663.86243652 -20.385849 662.67181396 C-20.3221109 661.43427368 -20.2583728 660.1967334 -20.19270325 658.92169189 C-20.09550025 655.58253821 -20.01107059 652.24359073 -19.93431282 648.90393829 C-19.84729624 645.43061973 -19.71789036 641.96917948 -19.49446106 638.50177002 C-18.0763165 623.10649528 -18.0763165 623.10649528 -23.84492493 609.5803833 C-29.57006465 605.0408304 -35.96490821 602.11785775 -42.6955719 599.36676025 C-46.44720673 597.79484928 -49.76837763 595.869471 -53.24739075 593.76544189 C-55.3718781 592.55620745 -57.49686656 591.34785292 -59.62239075 590.14044189 C-69.69398599 584.40692889 -79.72670407 578.60974159 -89.72200012 572.74395752 C-91.5119024 571.69487943 -93.3045656 570.65049268 -95.10041809 569.6116333 C-96.78469152 568.62911329 -98.45709389 567.62596153 -100.11701965 566.60284424 C-101.28950256 565.90022461 -101.28950256 565.90022461 -102.485672 565.18341064 C-103.16541077 564.76470703 -103.84514954 564.34600342 -104.54548645 563.91461182 C-107.32094673 562.88005386 -108.81402241 563.26772834 -111.62239075 564.14044189 C-113.92152727 565.23902834 -113.92152727 565.23902834 -116.18489075 566.65997314 C-117.05420227 567.18212402 -117.92351379 567.7042749 -118.81916809 568.24224854 C-120.20676331 569.08904175 -120.20676331 569.08904175 -121.62239075 569.95294189 C-123.59297643 571.13651399 -125.5643516 572.31877247 -127.53645325 573.49981689 C-128.54224426 574.10374268 -129.54803528 574.70766846 -130.58430481 575.32989502 C-135.35796643 578.17475797 -140.1728964 580.94540719 -144.99739075 583.70294189 C-145.84559387 584.19061035 -146.693797 584.67827881 -147.56770325 585.1807251 C-163.78259223 594.44199579 -163.78259223 594.44199579 -170.62239075 593.14044189 C-180.94136217 589.73269252 -185.00260445 581.09278082 -190.03572083 572.0960083 C-191.44159879 569.58318996 -192.86072389 567.07794124 -194.27928162 564.57226562 C-195.00678094 563.28718192 -195.73364643 562.0017392 -196.45988464 560.71594238 C-199.79059592 554.82402151 -203.19730772 548.97796611 -206.62239075 543.14044189 C-212.02683795 533.91296025 -217.34891988 524.6404855 -222.64289856 515.34942627 C-227.80840366 506.28626776 -233.03722885 497.26204485 -238.30915833 488.26031494 C-243.73375336 478.98305542 -249.06440696 469.65303559 -254.38215637 460.31427002 C-255.34218567 458.62914307 -255.34218567 458.62914307 -256.3216095 456.90997314 C-256.8871051 455.91586426 -257.45260071 454.92175537 -258.03523254 453.89752197 C-259.09543914 452.05581868 -260.18069879 450.22831808 -261.29011536 448.41583252 C-263.73496549 444.24027758 -264.03520335 439.76787272 -263.2903595 435.02716064 C-260.37978806 425.35655232 -250.42088796 420.56377291 -242.12239075 416.07794189 C-239.24754472 414.50259523 -236.4157636 412.92008786 -233.62434387 411.19903564 C-230.37433603 409.3354529 -227.14467361 408.41140698 -223.54231262 407.40997314 C-216.37352606 404.99502974 -209.37758358 402.10509723 -205.62239075 395.14044189 C-200.93953968 380.15442488 -203.27920475 362.32881671 -203.97444153 346.89581299 C-204.22134052 340.83741701 -204.32984879 334.7766519 -204.45051575 328.71466064 C-204.7068465 316.85029007 -205.11558838 304.99657187 -205.62239075 293.14044189 C-209.38340167 290.99106832 -213.14444035 288.84174334 -216.90550232 286.69245911 C-218.17898773 285.96470888 -219.45246617 285.23694647 -220.72593689 284.50917053 C-234.7594791 276.48280757 -234.7594791 276.48280757 -248.80764771 268.4821167 C-255.10229431 264.87202999 -259.78411151 260.81700036 -263.05989075 254.26544189 C-264.69225812 245.19673425 -261.26852907 238.786497 -256.68489075 231.14044189 C-255.79809631 229.61834106 -255.79809631 229.61834106 -254.89338684 228.06549072 C-253.15095934 225.08160129 -251.38888941 222.11012531 -249.62239075 219.14044189 C-248.76822186 217.68678043 -247.91520612 216.23244022 -247.063797 214.77716064 C-245.49080802 212.09231631 -243.91022714 209.41213175 -242.32551575 206.73419189 C-233.92682683 192.50343306 -225.75522614 178.13753789 -217.56864929 163.78396606 C-211.11332344 152.46668915 -204.61417109 141.17652679 -198.016922 129.94122314 C-195.6753596 125.95332373 -193.36499562 121.9491971 -191.0716095 117.93341064 C-189.92195762 115.93987048 -188.77222121 113.94637906 -187.62239075 111.95294189 C-187.10652405 111.03786865 -186.59065735 110.12279541 -186.05915833 109.17999268 C-182.6025888 103.2259799 -179.36344951 99.20786911 -173.24739075 95.82794189 C-162.25762033 92.94966869 -154.11617396 99.06708869 -144.83332825 104.43731689 C-142.88647022 105.58574253 -140.94118894 106.73684482 -138.99739075 107.89044189 C-136.90410996 109.11520253 -134.81035507 110.3391532 -132.71614075 111.56231689 C-128.89089657 113.80212968 -125.08041928 116.06422004 -121.27864075 118.34356689 C-119.68544313 119.27680222 -118.09172714 120.20915338 -116.49739075 121.14044189 C-115.78244446 121.57968994 -115.06749817 122.01893799 -114.33088684 122.47149658 C-111.31056992 124.21172251 -109.30444598 125.22899603 -105.79426575 124.77325439 C-101.091203 122.35221963 -96.53789644 119.72787471 -91.99739075 117.01544189 C-89.83925613 115.74078532 -87.68037119 114.46739849 -85.52082825 113.19512939 C-84.39257629 112.52965088 -83.26432434 111.86417236 -82.10188293 111.17852783 C-76.89125739 108.11735401 -71.63747343 105.13174551 -66.38493347 102.14328003 C-53.07554696 94.57060667 -39.81303458 86.9186167 -26.62239075 79.14044189 C-25.76202713 78.73293198 -24.90166351 78.32542206 -24.01522827 77.90556335 C-21.38908044 76.36325577 -21.38908044 76.36325577 -21.00334167 73.60037231 C-21.00692184 72.07889084 -21.00692184 72.07889084 -21.01057434 70.52667236 C-20.99563431 68.79874954 -20.99563431 68.79874954 -20.98039246 67.03591919 C-20.99373627 65.78908356 -21.00708008 64.54224792 -21.02082825 63.25762939 C-21.00859262 61.2953885 -20.99634136 59.33314756 -20.98319435 57.37091255 C-20.97064056 54.61681767 -20.98032819 51.86297825 -20.9903717 49.10888672 C-21.00644396 44.3153026 -21.00362616 39.52189777 -20.97679138 34.72836304 C-20.96474533 32.17848303 -20.96729956 29.62848 -20.98649597 27.0786438 C-20.96244074 19.37414463 -20.73396606 11.95463099 -15.68489075 5.76544189 C-15.00426575 5.22919189 -14.32364075 4.69294189 -13.62239075 4.14044189 C-12.94176575 3.58356689 -12.26114075 3.02669189 -11.55989075 2.45294189 C-7.77376981 -0.11184971 -4.44861523 0.01090418 0 0 Z M17.37760925 37.14044189 C17.04760925 53.64044189 16.71760925 70.14044189 16.37760925 87.14044189 C13.07793662 97.03945979 10.8909437 99.93418777 2.31510925 104.95294189 C1.68789978 105.3220166 1.06069031 105.69109131 0.41447449 106.0713501 C-7.59373097 110.75788072 -15.67080413 115.32858394 -23.73347473 119.92071533 C-31.43001084 124.30553285 -39.10169869 128.729813 -46.74739075 133.20294189 C-62.46593567 142.39653482 -78.21313863 151.54414742 -94.05989075 160.51544189 C-94.69797668 160.87871582 -95.33606262 161.24198975 -95.9934845 161.61627197 C-101.64135762 164.79556439 -106.18249054 166.13346467 -112.62239075 165.14044189 C-116.51939552 163.53728384 -120.01664528 161.30820743 -123.62239075 159.14044189 C-125.72631781 157.96332515 -127.84025287 156.80544126 -129.95466614 155.64727783 C-137.84061754 151.32432204 -145.62138092 146.84322839 -153.3162384 142.18829346 C-156.72895589 139.9289373 -156.72895589 139.9289373 -160.62239075 139.14044189 C-160.99823303 139.79190186 -161.37407532 140.44336182 -161.76130676 141.11456299 C-167.65119934 151.32371012 -173.54109192 161.53285726 -179.4309845 171.74200439 C-180.04135559 172.80000244 -180.65172668 173.85800049 -181.28059387 174.94805908 C-182.51749803 177.09198257 -183.75447829 179.23586215 -184.99153137 181.37969971 C-188.13197192 186.82236748 -191.27107709 192.26579735 -194.407547 197.71075439 C-202.76497974 212.21535412 -211.17163459 226.69002323 -219.62239075 241.14044189 C-217.12414872 243.78606974 -214.84705281 245.78303569 -211.63020325 247.48028564 C-210.85297913 247.89689453 -210.075755 248.31350342 -209.27497864 248.74273682 C-208.44087463 249.18335449 -207.60677063 249.62397217 -206.74739075 250.07794189 C-204.95579326 251.04963043 -203.16547657 252.02368337 -201.376297 252.99981689 C-199.97274963 253.76455322 -199.97274963 253.76455322 -198.54084778 254.54473877 C-193.5649121 257.26539425 -188.61046065 260.01704264 -183.68489075 262.82794189 C-182.75628235 263.33768555 -181.82767395 263.8474292 -180.8709259 264.37261963 C-179.99613586 264.87736816 -179.12134583 265.3821167 -178.220047 265.90216064 C-177.45184631 266.33488281 -176.68364563 266.76760498 -175.89216614 267.21343994 C-171.76864389 270.71424247 -169.04047188 274.57008924 -168.15862942 279.99163532 C-167.97991934 283.41622158 -167.95823987 286.80918797 -167.99128723 290.23834229 C-167.98413193 291.5352449 -167.97697662 292.83214752 -167.96960449 294.16835022 C-167.95117553 297.70568746 -167.96397335 301.2422657 -167.98369479 304.77957082 C-168.00015022 308.49186451 -167.99125902 312.20411273 -167.98617554 315.91642761 C-167.98166279 322.14787846 -167.99747463 328.37902833 -168.02546692 334.6104126 C-168.05752944 341.80309556 -168.05749511 348.9952363 -168.04025215 356.18795782 C-168.02436105 363.1238475 -168.03113622 370.05953938 -168.04818916 376.99542046 C-168.05504125 379.93986754 -168.05404634 382.88415519 -168.04664421 385.82859993 C-168.03752515 389.94334911 -168.06157198 394.05726786 -168.08894348 398.17193604 C-168.0824176 399.38719971 -168.07589172 400.60246338 -168.06916809 401.85455322 C-168.14423327 408.49453923 -168.58704956 412.7732932 -172.62239075 418.14044189 C-174.94270325 420.04669189 -174.94270325 420.04669189 -177.74739075 421.64044189 C-178.87789856 422.29657471 -180.00840637 422.95270752 -181.173172 423.62872314 C-181.84686829 424.00851318 -182.52056458 424.38830322 -183.2146759 424.77960205 C-187.30608084 427.09206313 -191.36798771 429.45573031 -195.43635559 431.80841064 C-197.73201047 433.13514779 -200.03094257 434.45560762 -202.3318634 435.77325439 C-208.17131511 439.11952545 -213.94581696 442.52430536 -219.62239075 446.14044189 C-215.90678672 453.93459982 -211.63816758 461.31076058 -207.18489075 468.70294189 C-201.81643223 477.66987204 -196.57136735 486.68986835 -191.49739075 495.82794189 C-184.71490453 508.03680317 -177.70281734 520.10243786 -170.62239075 532.14044189 C-169.58848326 533.90082725 -168.55462684 535.66124259 -167.52082825 537.42169189 C-165.22458611 541.32985521 -162.92479406 545.2359054 -160.62239075 549.14044189 C-156.19635099 547.8155988 -152.5074444 546.06936291 -148.55207825 543.69122314 C-147.70856308 543.18766548 -147.70856308 543.18766548 -146.8480072 542.67393494 C-145.06114841 541.60569775 -143.27917465 540.529618 -141.49739075 539.45294189 C-140.3258458 538.74991762 -139.15397294 538.04743952 -137.98176575 537.34552002 C-136.24010557 536.30235238 -134.49851076 535.2590818 -132.75758362 534.21469116 C-128.8271066 531.85758904 -124.89095218 529.51063054 -120.94270325 527.18341064 C-119.98895813 526.62033203 -119.03521301 526.05725342 -118.05256653 525.47711182 C-113.3040573 522.86528863 -108.92518522 522.19403035 -103.62239075 523.14044189 C-90.68153624 528.20358946 -78.76050766 536.21285162 -66.8372345 543.25079346 C-61.49265823 546.39227435 -56.11999077 549.48471253 -50.74739075 552.57794189 C-49.67086243 553.19854492 -48.59433411 553.81914795 -47.48518372 554.45855713 C-40.8789857 558.2666449 -34.26956135 562.0691094 -27.65974426 565.87091064 C-24.41611462 567.74024343 -21.1772136 569.61756476 -17.938797 571.49591064 C-13.73711936 573.93105488 -9.5151914 576.32431901 -5.2747345 578.69122314 C-3.2863052 579.81986861 -1.2980173 580.94876322 0.69010925 582.07794189 C1.59728699 582.57310303 2.50446472 583.06826416 3.43913269 583.57843018 C9.06280866 586.80564109 12.8267726 590.0689383 15.37760925 596.14044189 C18.97544811 614.12963618 17.0107736 632.79865934 17.37760925 651.14044189 C56.31760925 651.14044189 95.25760925 651.14044189 135.37760925 651.14044189 C135.70760925 634.64044189 136.03760925 618.14044189 136.37760925 601.14044189 C139.80732841 590.85128443 142.56981277 587.8399895 151.56510925 582.76544189 C152.29141541 582.34681885 153.01772156 581.9281958 153.76603699 581.49688721 C155.39667905 580.55798686 157.02937065 579.62264001 158.66374207 578.69024658 C162.66467046 576.40544148 166.65273686 574.09847706 170.64250183 571.79425049 C172.86307146 570.51224842 175.08427566 569.23134495 177.30607605 567.95147705 C184.67741155 563.70513735 192.03315377 559.43308333 199.37760925 555.14044189 C215.14097383 545.93151806 230.92796054 536.75960603 246.81510925 527.76544189 C247.45319519 527.40216797 248.09128113 527.03889404 248.748703 526.66461182 C254.45297067 523.45357386 258.89582135 522.44151744 265.37760925 523.14044189 C268.10929072 524.01727792 270.46815331 525.32212256 272.94010925 526.76544189 C273.63974792 527.15425537 274.3393866 527.54306885 275.06022644 527.94366455 C277.51362246 529.31889362 279.94589701 530.72723137 282.37760925 532.14044189 C283.38098328 532.71858643 284.3843573 533.29673096 285.4181366 533.89239502 C303.14115718 544.11194486 303.14115718 544.11194486 309.07389832 547.8303833 C311.22567393 549.30521931 311.22567393 549.30521931 313.37760925 549.14044189 C313.75345154 548.48898193 314.12929382 547.83752197 314.51652527 547.1663208 C320.40641785 536.95717367 326.29631042 526.74802653 332.186203 516.53887939 C333.10175964 514.95188232 333.10175964 514.95188232 334.03581238 513.33282471 C335.27271654 511.18890122 336.50969679 509.04502164 337.74674988 506.90118408 C340.88719042 501.45851631 344.02629559 496.01508644 347.1627655 490.57012939 C355.52019824 476.06552967 363.9268531 461.59086056 372.37760925 447.14044189 C369.9089177 444.38530754 367.19986134 442.74072966 363.99479675 440.91778564 C362.9173822 440.30169434 361.83996765 439.68560303 360.72990417 439.05084229 C359.00864319 438.07425659 359.00864319 438.07425659 357.25260925 437.07794189 C356.07286833 436.40092765 354.89358972 435.72310719 353.71476746 435.04449463 C348.51808692 432.05601781 343.3107411 429.09174582 338.0533905 426.21075439 C337.28333679 425.78028809 336.51328308 425.34982178 335.71989441 424.90631104 C334.33669732 424.13384577 332.94494985 423.37638851 331.5431366 422.63824463 C326.5640735 419.82932598 323.58316557 416.44468259 321.37760925 411.14044189 C320.6720941 406.76832834 320.70389795 402.46373257 320.74650574 398.0425415 C320.73577278 396.09718758 320.73577278 396.09718758 320.724823 394.11253357 C320.70639404 390.57519633 320.71919186 387.03861809 320.7389133 383.50131297 C320.75536873 379.78901928 320.74647752 376.07677106 320.74139404 372.36445618 C320.7368813 366.13300533 320.75269314 359.90185546 320.78068542 353.67047119 C320.81274794 346.47778823 320.81271362 339.28564749 320.79547065 332.09292597 C320.77957956 325.15703629 320.78635473 318.22134441 320.80340767 311.28546333 C320.81025976 308.34101625 320.80926485 305.39672859 320.80186272 302.45228386 C320.79274366 298.33753468 320.81679048 294.22361593 320.84416199 290.10894775 C320.83437317 288.28605225 320.83437317 288.28605225 320.8243866 286.42633057 C320.89945178 279.78634456 321.34226807 275.50759059 325.37760925 270.14044189 C327.69792175 268.23419189 327.69792175 268.23419189 330.50260925 266.64044189 C332.19837097 265.65624268 332.19837097 265.65624268 333.9283905 264.65216064 C334.60208679 264.27237061 335.27578308 263.89258057 335.96989441 263.50128174 C340.06129935 261.18882066 344.12320622 258.82515348 348.1915741 256.47247314 C350.48722897 255.145736 352.78616108 253.82527617 355.08708191 252.50762939 C360.92653361 249.16135834 366.70103546 245.75657843 372.37760925 242.14044189 C368.66200523 234.34628397 364.39338609 226.97012321 359.94010925 219.57794189 C354.57165073 210.61101175 349.32658586 201.59101544 344.25260925 192.45294189 C337.47012304 180.24408062 330.45803585 168.17844593 323.37760925 156.14044189 C322.34370177 154.38005654 321.30984534 152.6196412 320.27604675 150.85919189 C317.97980461 146.95102858 315.68001257 143.04497839 313.37760925 139.14044189 C308.8036324 140.80775899 304.67434292 143.08055659 300.44010925 145.45294189 C299.67174744 145.88083008 298.90338562 146.30871826 298.11174011 146.74957275 C290.51234382 151.01028732 283.02145077 155.45320763 275.55168152 159.93658447 C274.66021423 160.46920898 273.76874695 161.0018335 272.8502655 161.55059814 C272.05886169 162.02634277 271.26745789 162.5020874 270.45207214 162.99224854 C265.86762542 165.52969151 261.476271 166.06934788 256.37760925 165.14044189 C246.49788819 161.15159962 237.34912188 155.48050479 228.2252655 150.02325439 C222.50002037 146.60329109 216.7197066 143.27995363 210.94010925 139.95294189 C209.83361023 139.31541992 208.72711121 138.67789795 207.58708191 138.02105713 C205.31573236 136.71247346 203.04424687 135.40412575 200.77262878 134.0960083 C197.4618164 132.18894608 194.15191664 130.28031234 190.842453 128.37091064 C189.77333679 127.75409424 188.70422058 127.13727783 187.60270691 126.50177002 C185.46019335 125.26524289 183.31793881 124.02826687 181.1759491 122.79083252 C176.11108349 119.86586687 171.04332768 116.94631961 165.96424866 114.04611206 C163.57223808 112.67980317 161.18201217 111.31038904 158.79191589 109.94073486 C157.10931963 108.97823175 155.42416089 108.02021258 153.73893738 107.06231689 C152.71606628 106.47579346 151.69319519 105.88927002 150.639328 105.28497314 C149.74173767 104.77297363 148.84414734 104.26097412 147.9193573 103.73345947 C142.76883395 100.50541559 139.70298186 97.83760478 137.37760925 92.14044189 C133.7797704 74.15124761 135.7444449 55.48222445 135.37760925 37.14044189 C96.43760925 37.14044189 57.49760925 37.14044189 17.37760925 37.14044189 Z " fill="#FFFFFF" transform="translate(423.6223907470703,155.85955810546875)"/>
<path d="M0 0 C0.84433594 0.72316406 1.68867187 1.44632812 2.55859375 2.19140625 C32.5259013 28.01483653 50.17572103 67.31133981 54.6875 106.125 C57.7978762 149.15187081 46.80234674 193.61482442 18.375 226.9375 C16.59948875 228.97349785 14.80174726 230.98691997 13 233 C12.27683594 233.84433594 11.55367187 234.68867187 10.80859375 235.55859375 C-13.36195211 263.60777907 -51.37719481 282.72733939 -88 287 C-88.78890625 287.10957031 -89.5778125 287.21914063 -90.390625 287.33203125 C-133.26737303 292.38825154 -177.11765856 280.19280202 -211.125 253.625 C-220.12875385 246.45030827 -228.68631801 238.92749914 -236 230 C-236.91652344 228.93265625 -236.91652344 228.93265625 -237.8515625 227.84375 C-265.89385225 194.32706903 -277.81910019 150.72234666 -274.7265625 107.53515625 C-271.51163024 72.3285368 -256.47000108 39.22287339 -233 13 C-232.27683594 12.15566406 -231.55367188 11.31132812 -230.80859375 10.44140625 C-206.63804789 -17.60777907 -168.62280519 -36.72733939 -132 -41 C-131.21109375 -41.10957031 -130.4221875 -41.21914063 -129.609375 -41.33203125 C-82.51572049 -46.88552824 -35.17861178 -31.48556775 0 0 Z M-139 -2 C-139.69899414 -1.83902832 -140.39798828 -1.67805664 -141.11816406 -1.51220703 C-165.64874221 4.40171883 -185.37351146 17.20903412 -203 35 C-203.76699219 35.76957031 -204.53398437 36.53914063 -205.32421875 37.33203125 C-228.63310062 61.79672544 -238.8689705 95.15453266 -238.25 128.46484375 C-237.04637098 163.26777694 -221.32379876 192.86802931 -197 217 C-196.30261719 217.69480469 -195.60523438 218.38960937 -194.88671875 219.10546875 C-170.70937918 241.99449538 -137.2556615 251.85801076 -104.53515625 251.25 C-96.52385254 250.97293606 -88.80316511 249.79812065 -81 248 C-80.30100586 247.83902832 -79.60201172 247.67805664 -78.88183594 247.51220703 C-54.35125779 241.59828117 -34.62648854 228.79096588 -17 211 C-16.23300781 210.23042969 -15.46601562 209.46085938 -14.67578125 208.66796875 C8.70544113 184.12734691 18.90554768 150.68912852 18.25 117.27734375 C16.9855911 82.57564145 1.24918115 53.05794155 -23 29 C-23.69738281 28.30519531 -24.39476562 27.61039063 -25.11328125 26.89453125 C-49.29062082 4.00550462 -82.7443385 -5.85801076 -115.46484375 -5.25 C-123.47614746 -4.97293606 -131.19683489 -3.79812065 -139 -2 Z " fill="#FFFFFF" transform="translate(610,377)"/>
<path d="M0 0 C330 0 660 0 1000 0 C1000 0.66 1000 1.32 1000 2 C670 2 340 2 0 2 C0 1.34 0 0.68 0 0 Z " fill="#FFFFFF" transform="translate(0,1078)"/>
</svg>
