<?xml version="1.0" encoding="UTF-8"?>
<svg version="1.1" xmlns="http://www.w3.org/2000/svg" width="216" height="233">
<path d="M0 0 C1 1 1 1 1.09765625 3.06640625 C1.08605469 3.89011719 1.07445312 4.71382812 1.0625 5.5625 C1.05347656 6.38878906 1.04445312 7.21507812 1.03515625 8.06640625 C1.02355469 8.70449219 1.01195312 9.34257813 1 10 C-0.51980469 10.05607422 -0.51980469 10.05607422 -2.0703125 10.11328125 C-3.42190939 10.17898388 -4.77347029 10.24542971 -6.125 10.3125 C-6.79015625 10.33505859 -7.4553125 10.35761719 -8.140625 10.38085938 C-12.74712877 10.62924928 -16.10656442 11.50891128 -20 14 C-20.97576337 16.9272901 -21.13449211 18.83289618 -21.15390015 21.88278198 C-21.16680084 23.392677 -21.16680084 23.392677 -21.17996216 24.93307495 C-21.18422211 26.03652252 -21.18848206 27.13997009 -21.19287109 28.27685547 C-21.20104858 29.43969055 -21.20922607 30.60252563 -21.21765137 31.80059814 C-21.24250442 35.65612266 -21.25901909 39.51161042 -21.2734375 43.3671875 C-21.27876118 44.682103 -21.28408485 45.99701851 -21.28956985 47.35177994 C-21.31119003 52.87634529 -21.32992718 58.40090776 -21.34119225 63.92550468 C-21.35743685 71.83946135 -21.39063593 79.75292752 -21.44759309 87.66669929 C-21.48629302 93.2336709 -21.50582478 98.80051131 -21.51111281 104.36761391 C-21.51476559 107.69184123 -21.52927603 111.01542474 -21.55921555 114.33953476 C-21.59071925 118.04819095 -21.59092551 121.75560144 -21.58349609 125.46435547 C-21.59990143 126.56375458 -21.61630676 127.66315369 -21.63320923 128.79586792 C-21.59514555 133.42765597 -21.5013671 136.19296353 -19.02287292 140.18252563 C-14.91005905 142.65531691 -11.7690436 142.69009341 -7.05053711 142.61523438 C-6.15890366 142.62078339 -5.2672702 142.6263324 -4.34861755 142.63204956 C-1.40764264 142.64384001 1.53178961 142.61957868 4.47265625 142.59375 C6.51858958 142.59203882 8.5645251 142.59210465 10.61045837 142.59387207 C14.89522314 142.59221922 19.17946445 142.5735258 23.46411133 142.54199219 C28.95779837 142.50228983 34.45080062 142.49795009 39.94460392 142.50545502 C44.16794617 142.50852341 48.39113428 142.49640924 52.61443901 142.47932434 C54.64024323 142.47229101 56.66606492 142.46917021 58.69188118 142.47001648 C61.52155305 142.46822006 64.35040196 142.44685224 67.17993164 142.41992188 C68.01796326 142.42285248 68.85599487 142.42578308 69.71942139 142.42880249 C73.04018641 142.38000496 75.53412767 142.250601 78.48875427 140.66125488 C81.14199525 137.74464811 81.12647157 134.90587257 81.13371277 131.14845276 C81.13797775 130.14882507 81.14224274 129.14919739 81.14663696 128.11927795 C81.14618378 127.02361008 81.14573059 125.9279422 81.14526367 124.79907227 C81.14862228 123.64438446 81.1519809 122.48969666 81.15544128 121.30001831 C81.16496255 117.47213677 81.16689493 113.64429891 81.16796875 109.81640625 C81.17036898 107.83276879 81.17277081 105.84913132 81.17542917 103.86549419 C81.18357187 97.62736723 81.18601355 91.38925471 81.18530273 85.15112305 C81.18470182 78.71581124 81.19525684 72.28058323 81.2110464 65.84529263 C81.22412031 60.31994595 81.2294867 54.79462667 81.22884732 49.26926464 C81.22859231 45.9693218 81.23236301 42.6694703 81.24202538 39.36953926 C81.2517917 35.68972893 81.24896049 32.01013588 81.24291992 28.33032227 C81.24853943 27.23667862 81.25415894 26.14303497 81.25994873 25.01625061 C81.25575424 24.0138031 81.25155975 23.01135559 81.24723816 21.97853088 C81.24778293 21.10856759 81.24832769 20.2386043 81.24888897 19.34227848 C80.97595093 16.77367568 80.37818045 15.17498494 79 13 C74.96534547 10.7134499 70.72635441 10.58348326 66.1875 10.375 C65.14819336 10.31699219 65.14819336 10.31699219 64.08789062 10.2578125 C62.39232985 10.16426432 60.69620288 10.08107636 59 10 C58.97310784 8.52093108 58.95365379 7.04172517 58.9375 5.5625 C58.92589844 4.73878906 58.91429687 3.91507813 58.90234375 3.06640625 C59 1 59 1 60 0 C70.84938732 -0.62536683 78.78016937 -0.33773536 87.203125 6.85546875 C92.54304938 13.22855242 92.44130952 19.78444706 92.41992188 27.7434082 C92.42839142 28.9085495 92.43686096 30.0736908 92.44558716 31.2741394 C92.468939 35.11646516 92.46997961 38.95838997 92.46875 42.80078125 C92.47405673 44.80215626 92.47937039 46.80353139 92.48561716 48.80490369 C92.50481748 55.09515196 92.50774784 61.38526757 92.50097656 67.67553711 C92.49434218 74.1428171 92.51718285 80.60952583 92.55429029 87.07669002 C92.58508615 92.64809979 92.59633658 98.21932675 92.59245348 103.79081982 C92.59039564 107.11006368 92.59798137 110.42876662 92.62034607 113.7479496 C92.6425752 117.4552247 92.63281104 121.16113623 92.61523438 124.8684082 C92.62849762 125.95289749 92.64176086 127.03738678 92.65542603 128.15473938 C92.57666039 135.33465505 91.22377726 141.07612359 87 147 C80.52352884 152.42300859 74.68052578 153.14978513 66.41113281 153.16113281 C65.5455777 153.16609772 64.68002258 153.17106262 63.78823853 153.17617798 C60.9265259 153.19077484 58.06486873 153.19759793 55.203125 153.203125 C53.21018472 153.20887903 51.21724446 153.21463674 49.2243042 153.22039795 C45.04471581 153.23090127 40.86514661 153.23674814 36.68554688 153.24023438 C31.34139641 153.24571389 25.99750139 153.26973323 20.65343094 153.29820633 C16.53549469 153.31687185 12.41761945 153.32204042 8.29964447 153.32357025 C6.33015295 153.32658909 4.36066231 153.33459156 2.39121246 153.34775543 C-0.37057159 153.36489576 -3.13173837 153.3629161 -5.89355469 153.35644531 C-6.70007477 153.3656601 -7.50659485 153.37487488 -8.33755493 153.3843689 C-14.96717366 153.33594684 -20.43974099 152.03656966 -25.75 147.8125 C-31.60109408 140.4986324 -32.58637472 134.37358248 -32.51757812 125.11132812 C-32.5245874 123.94282822 -32.53159668 122.77432831 -32.53881836 121.57041931 C-32.55636395 117.72378485 -32.54478684 113.87789141 -32.53125 110.03125 C-32.53394588 107.34898979 -32.53782349 104.66675173 -32.54284668 101.98449707 C-32.55010738 96.36930374 -32.54057713 90.7543214 -32.52148438 85.13916016 C-32.4997184 78.66335594 -32.50677091 72.1880556 -32.52879 65.71226358 C-32.5469893 60.13490972 -32.54948033 54.55770684 -32.53903532 48.98033285 C-32.53282508 45.6567992 -32.53348535 42.33355192 -32.54518127 39.01002502 C-32.55536576 35.30256326 -32.539817 31.59606228 -32.51757812 27.88867188 C-32.52567505 26.79856308 -32.53377197 25.70845428 -32.54211426 24.58531189 C-32.4590585 17.09253342 -31.18424952 11.92724107 -26.359375 5.9765625 C-18.50064772 -0.62324245 -9.92711557 -0.62682228 0 0 Z " fill="#FFFFFF" transform="translate(78,35)"/>
<path d="M0 0 C3.6394081 0.89172748 5.51058778 2.73841073 7.9609375 5.48046875 C8.97761404 7.84619686 9.46073881 9.92945545 9.9609375 12.48046875 C13.9209375 12.48046875 17.8809375 12.48046875 21.9609375 12.48046875 C21.9609375 19.08046875 21.9609375 25.68046875 21.9609375 32.48046875 C19.64252766 33.63967367 18.30654619 33.60720163 15.7265625 33.60986328 C14.85225586 33.61301544 13.97794922 33.6161676 13.07714844 33.61941528 C12.13129883 33.61739105 11.18544922 33.61536682 10.2109375 33.61328125 C8.7573584 33.61471634 8.7573584 33.61471634 7.27441406 33.61618042 C5.22330663 33.61686165 3.17219705 33.61501136 1.12109375 33.61083984 C-2.02609073 33.6054908 -5.17313248 33.61078679 -8.3203125 33.6171875 C-10.30989615 33.61652671 -12.29947971 33.61524552 -14.2890625 33.61328125 C-15.23491211 33.61530548 -16.18076172 33.61732971 -17.15527344 33.61941528 C-18.02958008 33.61626312 -18.90388672 33.61311096 -19.8046875 33.60986328 C-20.96145996 33.60866989 -20.96145996 33.60866989 -22.14160156 33.60745239 C-24.0390625 33.48046875 -24.0390625 33.48046875 -26.0390625 32.48046875 C-26.0390625 25.88046875 -26.0390625 19.28046875 -26.0390625 12.48046875 C-22.0790625 12.48046875 -18.1190625 12.48046875 -14.0390625 12.48046875 C-13.8328125 11.42859375 -13.6265625 10.37671875 -13.4140625 9.29296875 C-11.5109383 2.79062775 -6.64901151 -0.47129009 0 0 Z M-4.0390625 7.48046875 C-6.2882533 9.30750102 -6.2882533 9.30750102 -6.2890625 11.98046875 C-6.2882533 14.65343648 -6.2882533 14.65343648 -4.0390625 16.48046875 C-0.73222784 16.19063606 -0.73222784 16.19063606 1.9609375 14.48046875 C2.2110148 12.02236877 2.2110148 12.02236877 1.9609375 9.48046875 C1.3009375 8.82046875 0.6409375 8.16046875 -0.0390625 7.48046875 C-1.3590625 7.48046875 -2.6790625 7.48046875 -4.0390625 7.48046875 Z " fill="#FFFFFF" transform="translate(110.0390625,21.51953125)"/>
<path d="M0 0 C14.85 0 29.7 0 45 0 C45 2.31 45 4.62 45 7 C44 8 44 8 42.20933533 8.12025452 C41.42990067 8.11803391 40.650466 8.11581329 39.84741211 8.11352539 C38.96657455 8.11344986 38.085737 8.11337433 37.1782074 8.11329651 C36.22092239 8.10813522 35.26363739 8.10297394 34.27734375 8.09765625 C33.30213272 8.0962413 32.32692169 8.09482635 31.32215881 8.09336853 C28.19390857 8.08775133 25.06572877 8.07519593 21.9375 8.0625 C19.82226666 8.05748722 17.70703219 8.05292393 15.59179688 8.04882812 C10.39450704 8.03777631 5.19725855 8.02102146 0 8 C0 5.36 0 2.72 0 0 Z " fill="#FFFFFF" transform="translate(103,111)"/>
<path d="M0 0 C6.24795675 -0.02527124 12.49590041 -0.04283344 18.74389648 -0.05493164 C20.87118014 -0.05997298 22.99846031 -0.06680591 25.12573242 -0.07543945 C28.17627826 -0.08751379 31.22677845 -0.09323014 34.27734375 -0.09765625 C35.71327126 -0.10539818 35.71327126 -0.10539818 37.1782074 -0.11329651 C38.49946373 -0.11340981 38.49946373 -0.11340981 39.84741211 -0.11352539 C40.62684677 -0.115746 41.40628143 -0.11796661 42.20933533 -0.12025452 C44 0 44 0 45 1 C45 3.31 45 5.62 45 8 C30.15 8 15.3 8 0 8 C0 5.36 0 2.72 0 0 Z " fill="#FFFFFF" transform="translate(103,78)"/>
<path d="M0 0 C3.65316671 1.24976756 4.78065836 1.67098753 7 5 C0.89716127 12.88657285 -5.22936382 20.66676081 -12 28 C-17.11136723 24.34161026 -21.66297078 20.55388068 -26 16 C-24.95125002 13.37812506 -24.35068687 12.20628639 -21.875 10.75 C-21.25625 10.5025 -20.6375 10.255 -20 10 C-18.50260417 11.30208333 -17.00520833 12.60416667 -15.5078125 13.90625 C-14.04063579 15.19572458 -14.04063579 15.19572458 -12 15 C-10.06924919 12.72247812 -8.24026611 10.43771937 -6.4375 8.0625 C-5.43657688 6.76142712 -4.43529318 5.46063154 -3.43359375 4.16015625 C-2.63050781 3.11730469 -1.82742187 2.07445313 -1 1 C-0.67 0.67 -0.34 0.34 0 0 Z " fill="#FFFFFF" transform="translate(94,99)"/>
<path d="M0 0 C3.65316671 1.24976756 4.78065836 1.67098753 7 5 C4.86560485 7.60870519 2.73031189 10.21658348 0.58984375 12.8203125 C-1.13091108 14.92107547 -2.82329661 17.04057087 -4.49609375 19.1796875 C-5.67365234 20.66855469 -5.67365234 20.66855469 -6.875 22.1875 C-7.59429687 23.10917969 -8.31359375 24.03085938 -9.0546875 24.98046875 C-9.69664063 25.64691406 -10.33859375 26.31335938 -11 27 C-14 27 -14 27 -15.6484375 25.609375 C-16.21820313 24.99578125 -16.78796875 24.3821875 -17.375 23.75 C-20.0915395 20.9065733 -22.85773653 18.38050263 -26 16 C-24.48601545 12.21503862 -23.9855604 11.9927802 -20 10 C-17.36 11.98 -14.72 13.96 -12 16 C-11.34 14.68 -10.68 13.36 -10 12 C-8.32262591 9.87715934 -6.63039885 7.80534095 -4.875 5.75 C-4.40707031 5.19570312 -3.93914062 4.64140625 -3.45703125 4.0703125 C-2.30824672 2.71052674 -1.15460347 1.35484835 0 0 Z " fill="#FFFFFF" transform="translate(94,132)"/>
<path d="M0 0 C2.90542812 1.3024333 4.8092961 2.70886268 7 5 C4.3412605 8.33972456 1.67207113 11.67093448 -1 15 C-1.80179688 16.00417969 -2.60359375 17.00835937 -3.4296875 18.04296875 C-4.21601562 19.01878906 -5.00234375 19.99460937 -5.8125 21 C-6.90498047 22.36125 -6.90498047 22.36125 -8.01953125 23.75 C-10 26 -10 26 -13 28 C-17.29 24.04 -21.58 20.08 -26 16 C-23.75 11.5 -23.75 11.5 -20 10 C-18.53515625 11.33463542 -17.0703125 12.66927083 -15.60546875 14.00390625 C-14.81076172 14.49697266 -14.81076172 14.49697266 -14 15 C-10.2867029 13.7622343 -9.37219818 12.25608211 -7 9.1875 C-6.319375 8.31480469 -5.63875 7.44210938 -4.9375 6.54296875 C-3.28144278 4.36939364 -1.63381247 2.19032984 0 0 Z " fill="#FFFFFF" transform="translate(94,66)"/>
<path d="M0 0 C14.85 0 29.7 0 45 0 C45 2.31 45 4.62 45 7 C30.15 7 15.3 7 0 7 C0 4.69 0 2.38 0 0 Z " fill="#FFFFFF" transform="translate(103,144)"/>
<path d="M0 0 C0.66 0 1.32 0 2 0 C2 0.99 2 1.98 2 3 C4.97 3 7.94 3 11 3 C11.33 2.34 11.66 1.68 12 1 C12 1.66 12 2.32 12 3 C12.66 3 13.32 3 14 3 C14.33 2.34 14.66 1.68 15 1 C16.03125 1.33 17.0625 1.66 18.125 2 C21.48426709 2.9715192 24.49106202 3.17116771 28 3 C28.495 4.98 28.495 4.98 29 7 C27.68 7.33 26.36 7.66 25 8 C25 7.01 25 6.02 25 5 C24.67 5.495 24.34 5.99 24 6.5 C20.82427253 8.88179561 17.89753934 8.19168226 14 8 C14 6.68 14 5.36 14 4 C13.34 4 12.68 4 12 4 C12.33 5.32 12.66 6.64 13 8 C7.39 8 1.78 8 -4 8 C-4 6.33333333 -4 4.66666667 -4 3 C-3.01 3.33 -2.02 3.66 -1 4 C-0.67 2.68 -0.34 1.36 0 0 Z " fill="#FFFFFF" transform="translate(49,220)"/>
<path d="M0 0 C0.66 0.99 1.32 1.98 2 3 C2.66 3.33 3.32 3.66 4 4 C4 4.66 4 5.32 4 6 C4.66 6.66 5.32 7.32 6 8 C5.360625 7.814375 4.72125 7.62875 4.0625 7.4375 C3.0415625 7.2209375 3.0415625 7.2209375 2 7 C1.67 7.33 1.34 7.66 1 8 C-0.66429051 8.09823937 -2.33281931 8.12973631 -4 8.125 C-5.36125 8.12886719 -5.36125 8.12886719 -6.75 8.1328125 C-9 8 -9 8 -10 7 C-10.99 7.495 -10.99 7.495 -12 8 C-12.625 5.625 -12.625 5.625 -13 3 C-12.34 2.34 -11.68 1.68 -11 1 C-11 1.66 -11 2.32 -11 3 C-7.37 3 -3.74 3 0 3 C0 2.01 0 1.02 0 0 Z " fill="#FFFFFF" transform="translate(91,220)"/>
<path d="M0 0 C1.39456452 0.00667256 2.78911118 0.01863093 4.18359375 0.03515625 C4.89451172 0.03966797 5.60542969 0.04417969 6.33789062 0.04882812 C8.09899388 0.06064761 9.86005411 0.07858362 11.62109375 0.09765625 C11.95109375 1.74765625 12.28109375 3.39765625 12.62109375 5.09765625 C7.34109375 5.09765625 2.06109375 5.09765625 -3.37890625 5.09765625 C-3.70890625 3.77765625 -4.03890625 2.45765625 -4.37890625 1.09765625 C-3.37890625 0.09765625 -3.37890625 0.09765625 0 0 Z " fill="#FFFFFF" transform="translate(102.37890625,222.90234375)"/>
<path d="M0 0 C2.0625 0.4375 2.0625 0.4375 4 1 C4 2.32 4 3.64 4 5 C4.66 4.67 5.32 4.34 6 4 C5.67 2.68 5.34 1.36 5 0 C6.32 0.33 7.64 0.66 9 1 C9 2.65 9 4.3 9 6 C5.92677456 6.91058531 3.19902639 7.08886184 0 7 C-0.38133299 5.0085944 -0.71325582 3.00720923 -1 1 C-0.67 0.67 -0.34 0.34 0 0 Z " fill="#FFFFFF" transform="translate(128,221)"/>
<path d="M0 0 C2.64 0 5.28 0 8 0 C8.625 1.8125 8.625 1.8125 9 4 C8.01 5.485 8.01 5.485 7 7 C5 6 5 6 4 4 C4 4.99 4 5.98 4 7 C2.35 7 0.7 7 -1 7 C-0.649375 6.21625 -0.29875 5.4325 0.0625 4.625 C0.371875 3.75875 0.68125 2.8925 1 2 C0.67 1.34 0.34 0.68 0 0 Z " fill="#FFFFFF" transform="translate(138,221)"/>
<path d="M0 0 C2.97 0 5.94 0 9 0 C8.34 2.31 7.68 4.62 7 7 C6.34 7 5.68 7 5 7 C5.66 5.02 6.32 3.04 7 1 C5.68 1.33 4.36 1.66 3 2 C3.33 3.32 3.66 4.64 4 6 C2.68 6.33 1.36 6.66 0 7 C0.33 6.34 0.66 5.68 1 5 C0.67 4.67 0.34 4.34 0 4 C0 2.68 0 1.36 0 0 Z " fill="#FFFFFF" transform="translate(163,221)"/>
<path d="M0 0 C2.0625 0.4375 2.0625 0.4375 4 1 C4 2.65 4 4.3 4 6 C2.0625 6.5625 2.0625 6.5625 0 7 C-1 6 -1 6 -1.125 3.5 C-1 1 -1 1 0 0 Z " fill="#FFFFFF" transform="translate(158,221)"/>
<path d="M0 0 C1.98 0.495 1.98 0.495 4 1 C4 2.65 4 4.3 4 6 C2.68 6.33 1.36 6.66 0 7 C-0.33 6.34 -0.66 5.68 -1 5 C-0.34 4.67 0.32 4.34 1 4 C0.67 2.68 0.34 1.36 0 0 Z " fill="#FFFFFF" transform="translate(148,221)"/>
<path d="M0 0 C0.66 0 1.32 0 2 0 C2.33 2.31 2.66 4.62 3 7 C1.68 6.67 0.36 6.34 -1 6 C-1.042721 4.33388095 -1.04063832 2.66617115 -1 1 C-0.67 0.67 -0.34 0.34 0 0 Z " fill="#FFFFFF" transform="translate(154,221)"/>
<path d="M0 0 C0.66 0 1.32 0 2 0 C2.33 2.31 2.66 4.62 3 7 C1.68 6.67 0.36 6.34 -1 6 C-1.042721 4.33388095 -1.04063832 2.66617115 -1 1 C-0.67 0.67 -0.34 0.34 0 0 Z " fill="#FFFFFF" transform="translate(124,221)"/>
<path d="M0 0 C0.66 0 1.32 0 2 0 C1.67 0.66 1.34 1.32 1 2 C0.67 1.34 0.34 0.68 0 0 Z " fill="#FFFFFF" transform="translate(117,224)"/>
</svg>
