<?xml version="1.0" encoding="UTF-8"?>
<!DOCTYPE svg PUBLIC "-//W3C//DTD SVG 1.1//EN" "http://www.w3.org/Graphics/SVG/1.1/DTD/svg11.dtd">
<svg xmlns="http://www.w3.org/2000/svg" version="1.1" width="200px" height="75px" style="shape-rendering:geometricPrecision; text-rendering:geometricPrecision; image-rendering:optimizeQuality; fill-rule:evenodd; clip-rule:evenodd" xmlns:xlink="http://www.w3.org/1999/xlink">
<g><path style="opacity:0.983" fill="#95b9fe" d="M 53.5,18.5 C 36.5,18.5 19.5,18.5 2.5,18.5C 3.14342,15.0125 5.14342,12.5125 8.5,11C 21.1667,10.3333 33.8333,10.3333 46.5,11C 50.321,12.1617 52.6543,14.6617 53.5,18.5 Z"/></g>
<g><path style="opacity:0.876" fill="#fefffe" d="M 62.5,19.5 C 70.171,18.1375 74.8377,21.1375 76.5,28.5C 74.1378,29.2715 71.8045,30.1048 69.5,31C 72.1024,31.8834 74.2691,33.3834 76,35.5C 78.5,48.3333 73.3333,53.5 60.5,51C 56.8462,48.5235 55.1795,45.0235 55.5,40.5C 57.8194,39.833 60.1527,39.6664 62.5,40C 62.926,43.5921 64.926,45.0921 68.5,44.5C 68.7135,42.8561 68.3802,41.3561 67.5,40C 57.0422,37.911 53.8756,32.0776 58,22.5C 59.4087,21.2189 60.9087,20.2189 62.5,19.5 Z M 64.5,26.5 C 67.5341,26.6095 68.5341,27.9428 67.5,30.5C 64.6494,30.037 63.6494,28.7036 64.5,26.5 Z"/></g>
<g><path style="opacity:0.866" fill="#fefffe" d="M 141.5,20.5 C 147.176,20.3339 152.843,20.5006 158.5,21C 160.259,22.008 161.426,23.508 162,25.5C 164.318,35.3383 160.485,40.3383 150.5,40.5C 150.5,44.1667 150.5,47.8333 150.5,51.5C 147.5,51.5 144.5,51.5 141.5,51.5C 141.5,41.1667 141.5,30.8333 141.5,20.5 Z M 150.5,27.5 C 154.161,27.3501 155.161,28.8501 153.5,32C 152.552,32.4828 151.552,32.6495 150.5,32.5C 150.5,30.8333 150.5,29.1667 150.5,27.5 Z"/></g>
<g><path style="opacity:0.993" fill="#7eacf9" d="M 2.5,18.5 C 19.5,18.5 36.5,18.5 53.5,18.5C 54.3597,22.4338 54.693,26.4338 54.5,30.5C 51.2457,30.7931 48.2457,30.1264 45.5,28.5C 45.189,27.5222 44.5223,26.8555 43.5,26.5C 41.4807,28.1897 39.4807,29.8564 37.5,31.5C 36.8333,31.5 36.1667,31.5 35.5,31.5C 34.977,29.2921 33.6437,27.7921 31.5,27C 24.8333,26.3333 18.1667,26.3333 11.5,27C 10.5939,28.6995 10.2606,30.5328 10.5,32.5C 10.5,35.5 10.5,38.5 10.5,41.5C 9.83359,37.3155 9.16692,32.9822 8.5,28.5C 6.49024,30.1713 4.1569,30.838 1.5,30.5C 1.18325,26.2984 1.51658,22.2984 2.5,18.5 Z"/></g>
<g><path style="opacity:0.836" fill="#fefffe" d="M 110.5,27.5 C 113.675,27.8399 115.841,29.5066 117,32.5C 117.5,38.8246 117.666,45.1579 117.5,51.5C 114.833,51.5 112.167,51.5 109.5,51.5C 109.946,45.9786 109.446,40.6452 108,35.5C 106.554,40.6452 106.054,45.9786 106.5,51.5C 103.833,51.5 101.167,51.5 98.5,51.5C 98.5,43.8333 98.5,36.1667 98.5,28.5C 101.394,28.0423 103.894,28.709 106,30.5C 107.409,29.2189 108.909,28.2189 110.5,27.5 Z"/></g>
<g><path style="opacity:0.86" fill="#fefffe" d="M 128.5,27.5 C 134.434,27.1067 138.101,29.7734 139.5,35.5C 137.997,36.557 136.33,37.2237 134.5,37.5C 132.526,36.2959 130.526,35.4625 128.5,35C 126.334,37.9888 126.001,41.1554 127.5,44.5C 130.36,44.9158 132.526,43.9158 134,41.5C 135.766,42.2335 137.599,42.5668 139.5,42.5C 138.265,50.6285 133.598,53.4618 125.5,51C 123.714,50.2155 122.214,49.0488 121,47.5C 119.466,43.2891 119.133,38.9558 120,34.5C 121.84,30.8151 124.673,28.4818 128.5,27.5 Z"/></g>
<g><path style="opacity:0.818" fill="#fefffe" d="M 174.5,27.5 C 179.2,29.3126 179.867,32.3126 176.5,36.5C 175.094,35.3318 173.928,35.6652 173,37.5C 172.501,42.1548 172.334,46.8215 172.5,51.5C 169.833,51.5 167.167,51.5 164.5,51.5C 164.5,43.8333 164.5,36.1667 164.5,28.5C 167.119,28.2317 169.619,28.565 172,29.5C 172.995,28.9341 173.828,28.2674 174.5,27.5 Z"/></g>
<g><path style="opacity:0.873" fill="#fefffe" d="M 187.5,27.5 C 197.85,29.1725 201.35,35.1725 198,45.5C 194.344,51.6657 189.178,53.1657 182.5,50C 177.864,44.2044 177.364,38.0377 181,31.5C 182.792,29.372 184.958,28.0387 187.5,27.5 Z M 187.5,35.5 C 188.822,35.33 189.989,35.6634 191,36.5C 192.031,39.6828 191.365,42.3494 189,44.5C 188.228,44.3552 187.561,44.0219 187,43.5C 186.278,40.7395 186.445,38.0728 187.5,35.5 Z"/></g>
<g><path style="opacity:0.875" fill="#fefffe" d="M 77.5,28.5 C 80.1667,28.5 82.8333,28.5 85.5,28.5C 86.0127,32.553 86.846,36.553 88,40.5C 88.8374,36.486 89.6708,32.486 90.5,28.5C 92.8333,28.5 95.1667,28.5 97.5,28.5C 95.6161,38.3674 92.9494,48.0341 89.5,57.5C 88.9747,58.1924 88.3081,58.6924 87.5,59C 84.5184,59.498 81.5184,59.6646 78.5,59.5C 78.1924,57.076 78.5258,54.7427 79.5,52.5C 81.3289,53.2878 82.9956,52.7878 84.5,51C 81.8668,43.6 79.5335,36.1 77.5,28.5 Z"/></g>
<g><path style="opacity:1" fill="#ebf0fb" d="M 35.5,31.5 C 35.5,32.8333 35.5,34.1667 35.5,35.5C 27.7182,37.3597 19.7182,38.0264 11.5,37.5C 11.7845,35.5853 11.4511,33.9187 10.5,32.5C 10.2606,30.5328 10.5939,28.6995 11.5,27C 18.1667,26.3333 24.8333,26.3333 31.5,27C 33.6437,27.7921 34.977,29.2921 35.5,31.5 Z"/></g>
<g><path style="opacity:1" fill="#e9eefa" d="M 45.5,28.5 C 45.5,29.1667 45.5,29.8333 45.5,30.5C 44.5318,32.6074 44.1984,34.9407 44.5,37.5C 42.4727,37.6621 40.4727,37.4955 38.5,37C 37.6198,35.6439 37.2865,34.1439 37.5,32.5C 37.5,32.1667 37.5,31.8333 37.5,31.5C 39.4807,29.8564 41.4807,28.1897 43.5,26.5C 44.5223,26.8555 45.189,27.5222 45.5,28.5 Z"/></g>
<g><path style="opacity:0.787" fill="#5698f7" d="M 45.5,28.5 C 48.2457,30.1264 51.2457,30.7931 54.5,30.5C 54.5,35.1667 54.5,39.8333 54.5,44.5C 52.2919,42.8571 50.4585,43.1904 49,45.5C 47.6476,41.0809 46.481,36.7476 45.5,32.5C 45.5,31.8333 45.5,31.1667 45.5,30.5C 45.5,29.8333 45.5,29.1667 45.5,28.5 Z"/></g>
<g><path style="opacity:1" fill="#c4cfee" d="M 45.5,30.5 C 45.5,31.1667 45.5,31.8333 45.5,32.5C 45.5,36.8333 45.5,41.1667 45.5,45.5C 44.1266,45.6567 42.7932,45.49 41.5,45C 39.9625,43.2927 38.2959,41.7927 36.5,40.5C 36.1936,37.6146 36.5269,34.9479 37.5,32.5C 37.2865,34.1439 37.6198,35.6439 38.5,37C 40.4727,37.4955 42.4727,37.6621 44.5,37.5C 44.1984,34.9407 44.5318,32.6074 45.5,30.5 Z"/></g>
<g><path style="opacity:1" fill="#3782eb" d="M 10.5,41.5 C 10.5,42.1667 10.5,42.8333 10.5,43.5C 10.5106,45.0174 11.1772,46.1841 12.5,47C 16.3333,47.1667 20.1667,47.3333 24,47.5C 28.229,47.4898 32.0623,46.8232 35.5,45.5C 35.5,42.1667 35.5,38.8333 35.5,35.5C 35.5,34.1667 35.5,32.8333 35.5,31.5C 36.1667,31.5 36.8333,31.5 37.5,31.5C 37.5,31.8333 37.5,32.1667 37.5,32.5C 36.5269,34.9479 36.1936,37.6146 36.5,40.5C 37.8194,43.8194 40.1528,46.1528 43.5,47.5C 44.7133,47.2528 45.38,46.5862 45.5,45.5C 45.5,41.1667 45.5,36.8333 45.5,32.5C 46.481,36.7476 47.6476,41.0809 49,45.5C 50.4585,43.1904 52.2919,42.8571 54.5,44.5C 54.8064,47.3854 54.4731,50.0521 53.5,52.5C 47.7235,52.7276 42.3902,51.3942 37.5,48.5C 36.5,49 35.5,49.5 34.5,50C 23.4106,50.2781 12.4106,50.4447 1.5,50.5C 1.5,43.8333 1.5,37.1667 1.5,30.5C 4.1569,30.838 6.49024,30.1713 8.5,28.5C 9.16692,32.9822 9.83359,37.3155 10.5,41.5 Z"/></g>
<g><path style="opacity:1" fill="#17367e" d="M 10.5,43.5 C 11.6266,44.1217 12.6266,44.955 13.5,46C 20.9131,46.7964 28.2465,46.6297 35.5,45.5C 32.0623,46.8232 28.229,47.4898 24,47.5C 20.1667,47.3333 16.3333,47.1667 12.5,47C 11.1772,46.1841 10.5106,45.0174 10.5,43.5 Z"/></g>
<g><path style="opacity:1" fill="#273e81" d="M 36.5,40.5 C 38.2959,41.7927 39.9625,43.2927 41.5,45C 42.7932,45.49 44.1266,45.6567 45.5,45.5C 45.38,46.5862 44.7133,47.2528 43.5,47.5C 40.1528,46.1528 37.8194,43.8194 36.5,40.5 Z"/></g>
<g><path style="opacity:1" fill="#c9d4f3" d="M 10.5,32.5 C 11.4511,33.9187 11.7845,35.5853 11.5,37.5C 19.7182,38.0264 27.7182,37.3597 35.5,35.5C 35.5,38.8333 35.5,42.1667 35.5,45.5C 28.2465,46.6297 20.9131,46.7964 13.5,46C 12.6266,44.955 11.6266,44.1217 10.5,43.5C 10.5,42.8333 10.5,42.1667 10.5,41.5C 10.5,38.5 10.5,35.5 10.5,32.5 Z"/></g>
<g><path style="opacity:0.982" fill="#1f7ff9" d="M 53.5,52.5 C 53.655,57.0226 51.655,60.1893 47.5,62C 34.5,64 21.5,64 8.5,62C 3.4891,59.8046 1.15577,55.9712 1.5,50.5C 12.4106,50.4447 23.4106,50.2781 34.5,50C 35.5,49.5 36.5,49 37.5,48.5C 42.3902,51.3942 47.7235,52.7276 53.5,52.5 Z"/></g>
</svg>
